<svg xmlns="http://www.w3.org/2000/svg" width="1200" height="630" viewBox="0 0 1200 630">
<defs><linearGradient id="b" x1="0" y1="0" x2="1200" y2="630"><stop stop-color="#061321"/><stop offset="1" stop-color="#0d3556"/></linearGradient><linearGradient id="g" x1="0" y1="0" x2="1" y2="1"><stop stop-color="#33D69F"/><stop offset=".5" stop-color="#31A8FF"/><stop offset="1" stop-color="#1767D8"/></linearGradient></defs>
<rect width="1200" height="630" fill="url(#b)"/>
<g transform="translate(100 155) scale(2.4)"><path fill="url(#g)" d="M60 8 106 31 88 41 60 27 32 41 14 31 60 8Z"/><path fill="url(#g)" opacity=".92" d="m32 41 28 14 28-14 18 10-46 23-46-23 18-10Z"/><path fill="url(#g)" opacity=".8" d="m14 70 18-10 28 14 28-14 18 10-46 23-46-23Z"/><path fill="url(#g)" opacity=".66" d="m32 79 28 14 28-14 18 10-46 23-46-23 18-10Z"/></g>
<text x="430" y="275" fill="white" font-family="Arial, sans-serif" font-size="66" font-weight="700">Smart Code Stack</text>
<text x="432" y="350" fill="#b8cee0" font-family="Arial, sans-serif" font-size="31">Building what comes next.</text>
</svg>